<svg width="369" height="163" viewBox="0 0 369 163" fill="none" xmlns="http://www.w3.org/2000/svg">
<path d="M247 76.5002C247 48.8859 269.386 26.5002 297 26.5002C324.614 26.5002 368.5 78.386 368.5 106C355 140.5 324.614 126.5 297 126.5C230.5 167 247 104.114 247 76.5002Z" fill="#86B69E"/>
<path d="M247 76.5002C247 48.8859 269.386 26.5002 297 26.5002C324.614 26.5002 368.5 78.386 368.5 106C355 140.5 324.614 126.5 297 126.5C230.5 167 247 104.114 247 76.5002Z" fill="#86B69E" fill-opacity="0.09"/>
<path d="M197 57.5001C197 29.8858 219.386 7.50005 247 7.50006C274.614 7.50006 297 29.8858 297 57.5001C297 85.1143 274.614 85.0001 247 85.0001C219.386 85.0001 197 85.1143 197 57.5001Z" fill="#86B69E"/>
<path d="M197 57.5001C197 29.8858 219.386 7.50005 247 7.50006C274.614 7.50006 297 29.8858 297 57.5001C297 85.1143 274.614 85.0001 247 85.0001C219.386 85.0001 197 85.1143 197 57.5001Z" fill="#86B69E" fill-opacity="0.09"/>
<path d="M164 108C164 80.3858 186.386 58.0001 214 58.0001C241.614 58.0001 264 80.3858 264 108C264 135.614 241.614 135.5 214 135.5C186.386 135.5 164 135.614 164 108Z" fill="#86B69E"/>
<path d="M164 108C164 80.3858 186.386 58.0001 214 58.0001C241.614 58.0001 264 80.3858 264 108C264 135.614 241.614 135.5 214 135.5C186.386 135.5 164 135.614 164 108Z" fill="#86B69E" fill-opacity="0.09"/>
<path d="M236 135C236 107.386 258.386 85.0001 286 85.0001C313.614 85.0001 336 107.386 336 135C336 162.614 313.614 162.5 286 162.5C258.386 162.5 236 162.614 236 135Z" fill="#86B69E"/>
<path d="M236 135C236 107.386 258.386 85.0001 286 85.0001C313.614 85.0001 336 107.386 336 135C336 162.614 313.614 162.5 286 162.5C258.386 162.5 236 162.614 236 135Z" fill="#86B69E" fill-opacity="0.09"/>
<path d="M186 135C186 107.386 208.386 85.0001 236 85.0001C263.614 85.0001 286 107.386 286 135C286 162.614 263.614 162.5 236 162.5C208.386 162.5 186 162.614 186 135Z" fill="#86B69E"/>
<path d="M186 135C186 107.386 208.386 85.0001 236 85.0001C263.614 85.0001 286 107.386 286 135C286 162.614 263.614 162.5 236 162.5C208.386 162.5 186 162.614 186 135Z" fill="#86B69E" fill-opacity="0.09"/>
<path d="M90.0001 58.0001C90.0001 30.3858 112.386 8.00005 140 8.00006C167.614 8.00006 190 30.3858 190 58.0001C190 85.6143 167.614 85.5001 140 85.5001C112.386 85.5001 90.0001 85.6143 90.0001 58.0001Z" fill="#86B69E"/>
<path d="M90.0001 58.0001C90.0001 30.3858 112.386 8.00005 140 8.00006C167.614 8.00006 190 30.3858 190 58.0001C190 85.6143 167.614 85.5001 140 85.5001C112.386 85.5001 90.0001 85.6143 90.0001 58.0001Z" fill="#86B69E" fill-opacity="0.09"/>
<path d="M51.0001 89.0001C51.0001 61.3858 73.3858 39.0001 101 39.0001C128.614 39.0001 151 61.3858 151 89.0001C151 116.614 128.614 116.5 101 116.5C73.3858 116.5 51.0001 116.614 51.0001 89.0001Z" fill="#86B69E"/>
<path d="M51.0001 89.0001C51.0001 61.3858 73.3858 39.0001 101 39.0001C128.614 39.0001 151 61.3858 151 89.0001C151 116.614 128.614 116.5 101 116.5C73.3858 116.5 51.0001 116.614 51.0001 89.0001Z" fill="#86B69E" fill-opacity="0.09"/>
<path d="M6.00006 102C6.00007 74.3858 28.3858 52.0001 56.0001 52.0001C83.6143 52.0001 106 74.3858 106 102C106 129.614 83.6143 129.5 56.0001 129.5C28.3858 129.5 6.00006 129.614 6.00006 102Z" fill="#86B69E"/>
<path d="M6.00006 102C6.00007 74.3858 28.3858 52.0001 56.0001 52.0001C83.6143 52.0001 106 74.3858 106 102C106 129.614 83.6143 129.5 56.0001 129.5C28.3858 129.5 6.00006 129.614 6.00006 102Z" fill="#86B69E" fill-opacity="0.09"/>
<path d="M140 135C140 107.386 162.386 85.0001 190 85.0001C217.614 85.0001 240 107.386 240 135C240 162.614 217.614 162.5 190 162.5C162.386 162.5 140 162.614 140 135Z" fill="#86B69E"/>
<path d="M140 135C140 107.386 162.386 85.0001 190 85.0001C217.614 85.0001 240 107.386 240 135C240 162.614 217.614 162.5 190 162.5C162.386 162.5 140 162.614 140 135Z" fill="#86B69E" fill-opacity="0.09"/>
<path d="M97 135C97 107.386 119.386 85.0001 147 85.0001C174.614 85.0001 197 107.386 197 135C197 162.614 174.614 162.5 147 162.5C119.386 162.5 97 162.614 97 135Z" fill="#86B69E"/>
<path d="M97 135C97 107.386 119.386 85.0001 147 85.0001C174.614 85.0001 197 107.386 197 135C197 162.614 174.614 162.5 147 162.5C119.386 162.5 97 162.614 97 135Z" fill="#86B69E" fill-opacity="0.09"/>
<path d="M56.0001 112C56.0001 84.3858 78.3858 62.0001 106 62.0001C133.614 62.0001 156 84.3858 156 112C135 141.5 133.614 141.5 106 141.5C78.3858 141.5 56.0001 139.614 56.0001 112Z" fill="#86B69E"/>
<path d="M56.0001 112C56.0001 84.3858 78.3858 62.0001 106 62.0001C133.614 62.0001 156 84.3858 156 112C135 141.5 133.614 141.5 106 141.5C78.3858 141.5 56.0001 139.614 56.0001 112Z" fill="#86B69E" fill-opacity="0.09"/>
<path d="M6.34393e-05 131C6.58534e-05 103.386 22.3858 81.0001 50.0001 81.0001C77.6143 81.0001 100 103.386 100 131C169.5 118.5 77.6143 158.5 50.0001 158.5C22.3858 158.5 6.10252e-05 158.614 6.34393e-05 131Z" fill="#86B69E"/>
<path d="M6.34393e-05 131C6.58534e-05 103.386 22.3858 81.0001 50.0001 81.0001C77.6143 81.0001 100 103.386 100 131C169.5 118.5 77.6143 158.5 50.0001 158.5C22.3858 158.5 6.10252e-05 158.614 6.34393e-05 131Z" fill="#86B69E" fill-opacity="0.09"/>
<path d="M114 77.0001C114 49.3858 136.386 27.0001 164 27.0001C191.614 27.0001 214 49.3858 214 77.0001C214 104.614 191.614 104.5 164 104.5C136.386 104.5 114 104.614 114 77.0001Z" fill="#86B69E"/>
<path d="M114 77.0001C114 49.3858 136.386 27.0001 164 27.0001C191.614 27.0001 214 49.3858 214 77.0001C214 104.614 191.614 104.5 164 104.5C136.386 104.5 114 104.614 114 77.0001Z" fill="#86B69E" fill-opacity="0.09"/>
<path d="M176 50.0001C176 22.3858 198.386 5.42499e-05 226 5.6664e-05C253.614 5.90781e-05 276 22.3858 276 50.0001C276 77.6143 253.614 77.5001 226 77.5001C198.386 77.5001 176 77.6143 176 50.0001Z" fill="#86B69E"/>
<path d="M176 50.0001C176 22.3858 198.386 5.42499e-05 226 5.6664e-05C253.614 5.90781e-05 276 22.3858 276 50.0001C276 77.6143 253.614 77.5001 226 77.5001C198.386 77.5001 176 77.6143 176 50.0001Z" fill="#86B69E" fill-opacity="0.09"/>
<path d="M164 50.0001C164 22.3858 186.386 5.42499e-05 214 5.6664e-05C241.614 5.90781e-05 264 22.3858 264 50.0001C264 77.6143 241.614 77.5001 214 77.5001C186.386 77.5001 164 77.6143 164 50.0001Z" fill="#86B69E"/>
<path d="M164 50.0001C164 22.3858 186.386 5.42499e-05 214 5.6664e-05C241.614 5.90781e-05 264 22.3858 264 50.0001C264 77.6143 241.614 77.5001 214 77.5001C186.386 77.5001 164 77.6143 164 50.0001Z" fill="#86B69E" fill-opacity="0.09"/>
<path d="M145 58.0001C145 30.3858 167.386 8.00005 195 8.00006C222.614 8.00006 245 30.3858 245 58.0001C245 85.6143 222.614 85.5001 195 85.5001C167.386 85.5001 145 85.6143 145 58.0001Z" fill="#86B69E"/>
<path d="M145 58.0001C145 30.3858 167.386 8.00005 195 8.00006C222.614 8.00006 245 30.3858 245 58.0001C245 85.6143 222.614 85.5001 195 85.5001C167.386 85.5001 145 85.6143 145 58.0001Z" fill="#86B69E" fill-opacity="0.09"/>
</svg>
