<svg width="612" height="176" viewBox="0 0 612 176" fill="none" xmlns="http://www.w3.org/2000/svg">
<path d="M121.5 86C121.5 113.614 99.1142 136 71.5 136C43.8858 136 0 84.1142 0 56.4999C13.5 21.9999 43.8858 35.9999 71.5 35.9999C138 -4.50005 121.5 58.3857 121.5 86Z" fill="#86B69E"/>
<path d="M171.5 105C171.5 132.614 149.114 155 121.5 155C93.8857 155 71.5 132.614 71.5 105C71.5 77.3858 93.8857 77.5 121.5 77.5C149.114 77.5 171.5 77.3858 171.5 105Z" fill="#86B69E"/>
<path d="M204.5 54.5001C204.5 82.1143 182.114 104.5 154.5 104.5C126.886 104.5 104.5 82.1143 104.5 54.5001C104.5 26.8858 126.886 27 154.5 27C182.114 27 204.5 26.8858 204.5 54.5001Z" fill="#86B69E"/>
<path d="M132.5 27.5001C132.5 55.1143 110.114 77.5001 82.5 77.5001C54.8857 77.5001 32.5 55.1143 32.5 27.5001C32.5 -0.114178 54.8857 7.68194e-06 82.5 7.68194e-06C110.114 7.68194e-06 132.5 -0.114178 132.5 27.5001Z" fill="#86B69E"/>
<path d="M182.5 27.5001C182.5 55.1143 160.114 77.5001 132.5 77.5001C104.886 77.5001 82.5 55.1143 82.5 27.5001C82.5 -0.114178 104.886 7.68194e-06 132.5 7.68194e-06C160.114 7.68194e-06 182.5 -0.114178 182.5 27.5001Z" fill="#86B69E"/>
<path d="M278.5 104.5C278.5 132.114 256.114 154.5 228.5 154.5C200.886 154.5 178.5 132.114 178.5 104.5C178.5 76.8858 200.886 77 228.5 77C256.114 77 278.5 76.8858 278.5 104.5Z" fill="#86B69E"/>
<path d="M317.5 73.5001C317.5 101.114 295.114 123.5 267.5 123.5C239.886 123.5 217.5 101.114 217.5 73.5001C217.5 45.8858 239.886 46 267.5 46C295.114 46 317.5 45.8858 317.5 73.5001Z" fill="#86B69E"/>
<path d="M362.5 60.5001C362.5 88.1143 340.114 110.5 312.5 110.5C284.886 110.5 262.5 88.1143 262.5 60.5001C262.5 32.8858 284.886 33 312.5 33C340.114 33 362.5 32.8858 362.5 60.5001Z" fill="#86B69E"/>
<path d="M228.5 27.5001C228.5 55.1143 206.114 77.5001 178.5 77.5001C150.886 77.5001 128.5 55.1143 128.5 27.5001C128.5 -0.114178 150.886 7.68194e-06 178.5 7.68194e-06C206.114 7.68194e-06 228.5 -0.114178 228.5 27.5001Z" fill="#86B69E"/>
<path d="M271.5 27.5001C271.5 55.1143 249.114 77.5001 221.5 77.5001C193.886 77.5001 171.5 55.1143 171.5 27.5001C171.5 -0.114178 193.886 7.68194e-06 221.5 7.68194e-06C249.114 7.68194e-06 271.5 -0.114178 271.5 27.5001Z" fill="#86B69E"/>
<path d="M312.5 50.5C312.5 78.1143 290.114 100.5 262.5 100.5C234.886 100.5 212.5 78.1143 212.5 50.5C233.5 21 234.886 21 262.5 21C290.114 21 312.5 22.8858 312.5 50.5Z" fill="#86B69E"/>
<path d="M368.5 31.5001C368.5 59.1143 346.114 81.5001 318.5 81.5001C290.886 81.5001 268.5 59.1143 268.5 31.5001C199 44 290.886 4.00001 318.5 4.00001C346.114 4.00001 368.5 3.88582 368.5 31.5001Z" fill="#86B69E"/>
<path d="M254.5 85.5001C254.5 113.114 232.114 135.5 204.5 135.5C176.886 135.5 154.5 113.114 154.5 85.5001C154.5 57.8858 176.886 58 204.5 58C232.114 58 254.5 57.8858 254.5 85.5001Z" fill="#86B69E"/>
<path d="M192.5 112.5C192.5 140.114 170.114 162.5 142.5 162.5C114.886 162.5 92.5 140.114 92.5 112.5C92.5 84.8858 114.886 85 142.5 85C170.114 85 192.5 84.8858 192.5 112.5Z" fill="#86B69E"/>
<path d="M204.5 112.5C204.5 140.114 182.114 162.5 154.5 162.5C126.886 162.5 104.5 140.114 104.5 112.5C104.5 84.8858 126.886 85 154.5 85C182.114 85 204.5 84.8858 204.5 112.5Z" fill="#86B69E"/>
<path d="M223.5 104.5C223.5 132.114 201.114 154.5 173.5 154.5C145.886 154.5 123.5 132.114 123.5 104.5C123.5 76.8858 145.886 77 173.5 77C201.114 77 223.5 76.8858 223.5 104.5Z" fill="#86B69E"/>
<path d="M490 89.5002C490 61.8859 512.386 39.5002 540 39.5002C567.614 39.5002 611.5 91.386 611.5 119C598 153.5 567.614 139.5 540 139.5C473.5 180 490 117.114 490 89.5002Z" fill="#86B69E"/>
<path d="M490 89.5002C490 61.8859 512.386 39.5002 540 39.5002C567.614 39.5002 611.5 91.386 611.5 119C598 153.5 567.614 139.5 540 139.5C473.5 180 490 117.114 490 89.5002Z" fill="#86B69E" fill-opacity="0.09"/>
<path d="M440 70.5001C440 42.8858 462.386 20.5001 490 20.5001C517.614 20.5001 540 42.8858 540 70.5001C540 98.1143 517.614 98.0001 490 98.0001C462.386 98.0001 440 98.1143 440 70.5001Z" fill="#86B69E"/>
<path d="M440 70.5001C440 42.8858 462.386 20.5001 490 20.5001C517.614 20.5001 540 42.8858 540 70.5001C540 98.1143 517.614 98.0001 490 98.0001C462.386 98.0001 440 98.1143 440 70.5001Z" fill="#86B69E" fill-opacity="0.09"/>
<path d="M407 121C407 93.3858 429.386 71.0001 457 71.0001C484.614 71.0001 507 93.3858 507 121C507 148.614 484.614 148.5 457 148.5C429.386 148.5 407 148.614 407 121Z" fill="#86B69E"/>
<path d="M407 121C407 93.3858 429.386 71.0001 457 71.0001C484.614 71.0001 507 93.3858 507 121C507 148.614 484.614 148.5 457 148.5C429.386 148.5 407 148.614 407 121Z" fill="#86B69E" fill-opacity="0.09"/>
<path d="M479 148C479 120.386 501.386 98.0001 529 98.0001C556.614 98.0001 579 120.386 579 148C579 175.614 556.614 175.5 529 175.5C501.386 175.5 479 175.614 479 148Z" fill="#86B69E"/>
<path d="M479 148C479 120.386 501.386 98.0001 529 98.0001C556.614 98.0001 579 120.386 579 148C579 175.614 556.614 175.5 529 175.5C501.386 175.5 479 175.614 479 148Z" fill="#86B69E" fill-opacity="0.09"/>
<path d="M429 148C429 120.386 451.386 98.0001 479 98.0001C506.614 98.0001 529 120.386 529 148C529 175.614 506.614 175.5 479 175.5C451.386 175.5 429 175.614 429 148Z" fill="#86B69E"/>
<path d="M429 148C429 120.386 451.386 98.0001 479 98.0001C506.614 98.0001 529 120.386 529 148C529 175.614 506.614 175.5 479 175.5C451.386 175.5 429 175.614 429 148Z" fill="#86B69E" fill-opacity="0.09"/>
<path d="M333 71.0001C333 43.3858 355.386 21.0001 383 21.0001C410.614 21.0001 433 43.3858 433 71.0001C433 98.6143 410.614 98.5001 383 98.5001C355.386 98.5001 333 98.6143 333 71.0001Z" fill="#86B69E"/>
<path d="M333 71.0001C333 43.3858 355.386 21.0001 383 21.0001C410.614 21.0001 433 43.3858 433 71.0001C433 98.6143 410.614 98.5001 383 98.5001C355.386 98.5001 333 98.6143 333 71.0001Z" fill="#86B69E" fill-opacity="0.09"/>
<path d="M294 102C294 74.3858 316.386 52.0001 344 52.0001C371.614 52.0001 394 74.3858 394 102C394 129.614 371.614 129.5 344 129.5C316.386 129.5 294 129.614 294 102Z" fill="#86B69E"/>
<path d="M294 102C294 74.3858 316.386 52.0001 344 52.0001C371.614 52.0001 394 74.3858 394 102C394 129.614 371.614 129.5 344 129.5C316.386 129.5 294 129.614 294 102Z" fill="#86B69E" fill-opacity="0.09"/>
<path d="M249 115C249 87.3858 271.386 65.0001 299 65.0001C326.614 65.0001 349 87.3858 349 115C349 142.614 326.614 142.5 299 142.5C271.386 142.5 249 142.614 249 115Z" fill="#86B69E"/>
<path d="M249 115C249 87.3858 271.386 65.0001 299 65.0001C326.614 65.0001 349 87.3858 349 115C349 142.614 326.614 142.5 299 142.5C271.386 142.5 249 142.614 249 115Z" fill="#86B69E" fill-opacity="0.09"/>
<path d="M383 148C383 120.386 405.386 98.0001 433 98.0001C460.614 98.0001 483 120.386 483 148C483 175.614 460.614 175.5 433 175.5C405.386 175.5 383 175.614 383 148Z" fill="#86B69E"/>
<path d="M383 148C383 120.386 405.386 98.0001 433 98.0001C460.614 98.0001 483 120.386 483 148C483 175.614 460.614 175.5 433 175.5C405.386 175.5 383 175.614 383 148Z" fill="#86B69E" fill-opacity="0.09"/>
<path d="M340 148C340 120.386 362.386 98.0001 390 98.0001C417.614 98.0001 440 120.386 440 148C440 175.614 417.614 175.5 390 175.5C362.386 175.5 340 175.614 340 148Z" fill="#86B69E"/>
<path d="M340 148C340 120.386 362.386 98.0001 390 98.0001C417.614 98.0001 440 120.386 440 148C440 175.614 417.614 175.5 390 175.5C362.386 175.5 340 175.614 340 148Z" fill="#86B69E" fill-opacity="0.09"/>
<path d="M299 125C299 97.3858 321.386 75.0001 349 75.0001C376.614 75.0001 399 97.3858 399 125C378 154.5 376.614 154.5 349 154.5C321.386 154.5 299 152.614 299 125Z" fill="#86B69E"/>
<path d="M299 125C299 97.3858 321.386 75.0001 349 75.0001C376.614 75.0001 399 97.3858 399 125C378 154.5 376.614 154.5 349 154.5C321.386 154.5 299 152.614 299 125Z" fill="#86B69E" fill-opacity="0.09"/>
<path d="M243 144C243 116.386 265.386 94.0001 293 94.0001C320.614 94.0001 343 116.386 343 144C412.5 131.5 320.614 171.5 293 171.5C265.386 171.5 243 171.614 243 144Z" fill="#86B69E"/>
<path d="M243 144C243 116.386 265.386 94.0001 293 94.0001C320.614 94.0001 343 116.386 343 144C412.5 131.5 320.614 171.5 293 171.5C265.386 171.5 243 171.614 243 144Z" fill="#86B69E" fill-opacity="0.09"/>
<path d="M357 90.0001C357 62.3858 379.386 40.0001 407 40.0001C434.614 40.0001 457 62.3858 457 90.0001C457 117.614 434.614 117.5 407 117.5C379.386 117.5 357 117.614 357 90.0001Z" fill="#86B69E"/>
<path d="M357 90.0001C357 62.3858 379.386 40.0001 407 40.0001C434.614 40.0001 457 62.3858 457 90.0001C457 117.614 434.614 117.5 407 117.5C379.386 117.5 357 117.614 357 90.0001Z" fill="#86B69E" fill-opacity="0.09"/>
<path d="M419 63.0001C419 35.3858 441.386 13.0001 469 13.0001C496.614 13.0001 519 35.3858 519 63.0001C519 90.6143 496.614 90.5001 469 90.5001C441.386 90.5001 419 90.6143 419 63.0001Z" fill="#86B69E"/>
<path d="M419 63.0001C419 35.3858 441.386 13.0001 469 13.0001C496.614 13.0001 519 35.3858 519 63.0001C519 90.6143 496.614 90.5001 469 90.5001C441.386 90.5001 419 90.6143 419 63.0001Z" fill="#86B69E" fill-opacity="0.09"/>
<path d="M407 63.0001C407 35.3858 429.386 13.0001 457 13.0001C484.614 13.0001 507 35.3858 507 63.0001C507 90.6143 484.614 90.5001 457 90.5001C429.386 90.5001 407 90.6143 407 63.0001Z" fill="#86B69E"/>
<path d="M407 63.0001C407 35.3858 429.386 13.0001 457 13.0001C484.614 13.0001 507 35.3858 507 63.0001C507 90.6143 484.614 90.5001 457 90.5001C429.386 90.5001 407 90.6143 407 63.0001Z" fill="#86B69E" fill-opacity="0.09"/>
<path d="M388 71.0001C388 43.3858 410.386 21.0001 438 21.0001C465.614 21.0001 488 43.3858 488 71.0001C488 98.6143 465.614 98.5001 438 98.5001C410.386 98.5001 388 98.6143 388 71.0001Z" fill="#86B69E"/>
<path d="M388 71.0001C388 43.3858 410.386 21.0001 438 21.0001C465.614 21.0001 488 43.3858 488 71.0001C488 98.6143 465.614 98.5001 438 98.5001C410.386 98.5001 388 98.6143 388 71.0001Z" fill="#86B69E" fill-opacity="0.09"/>
</svg>
