<svg width="612" height="193" viewBox="0 0 612 193" fill="none" xmlns="http://www.w3.org/2000/svg">
<path d="M173 40C173 67.6143 150.614 90 123 90C95.3858 90 73 67.6143 73 40C73 12.3858 82.8858 0.5 110.5 0.5C138.114 0.5 173 12.3858 173 40Z" fill="#86B69E"/>
<path d="M121.5 103C121.5 130.614 99.1142 153 71.5 153C43.8858 153 0 101.114 0 73.4999C13.5 38.9999 43.8858 52.9999 71.5 52.9999C138 12.5 121.5 75.3857 121.5 103Z" fill="#86B69E"/>
<path d="M171.5 122C171.5 149.614 149.114 172 121.5 172C93.8857 172 71.5 149.614 71.5 122C71.5 94.3858 93.8857 94.5 121.5 94.5C149.114 94.5 171.5 94.3858 171.5 122Z" fill="#86B69E"/>
<path d="M204.5 71.5001C204.5 99.1143 182.114 121.5 154.5 121.5C126.886 121.5 104.5 99.1143 104.5 71.5001C104.5 43.8858 126.886 44 154.5 44C182.114 44 204.5 43.8858 204.5 71.5001Z" fill="#86B69E"/>
<path d="M132.5 44.5001C132.5 72.1143 110.114 94.5001 82.5 94.5001C54.8857 94.5001 32.5 72.1143 32.5 44.5001C32.5 16.8858 54.8857 17 82.5 17C110.114 17 132.5 16.8858 132.5 44.5001Z" fill="#86B69E"/>
<path d="M182.5 44.5001C182.5 72.1143 160.114 94.5001 132.5 94.5001C104.886 94.5001 82.5 72.1143 82.5 44.5001C82.5 16.8858 104.886 17 132.5 17C160.114 17 182.5 16.8858 182.5 44.5001Z" fill="#86B69E"/>
<path d="M278.5 121.5C278.5 149.114 256.114 171.5 228.5 171.5C200.886 171.5 178.5 149.114 178.5 121.5C178.5 93.8858 200.886 94 228.5 94C256.114 94 278.5 93.8858 278.5 121.5Z" fill="#86B69E"/>
<path d="M317.5 90.5001C317.5 118.114 295.114 140.5 267.5 140.5C239.886 140.5 217.5 118.114 217.5 90.5001C217.5 62.8858 239.886 63 267.5 63C295.114 63 317.5 62.8858 317.5 90.5001Z" fill="#86B69E"/>
<path d="M362.5 77.5001C362.5 105.114 340.114 127.5 312.5 127.5C284.886 127.5 262.5 105.114 262.5 77.5001C262.5 49.8858 284.886 50 312.5 50C340.114 50 362.5 49.8858 362.5 77.5001Z" fill="#86B69E"/>
<path d="M228.5 44.5001C228.5 72.1143 206.114 94.5001 178.5 94.5001C150.886 94.5001 128.5 72.1143 128.5 44.5001C128.5 16.8858 150.886 17 178.5 17C206.114 17 228.5 16.8858 228.5 44.5001Z" fill="#86B69E"/>
<path d="M271.5 44.5001C271.5 72.1143 249.114 94.5001 221.5 94.5001C193.886 94.5001 171.5 72.1143 171.5 44.5001C171.5 16.8858 193.886 17 221.5 17C249.114 17 271.5 16.8858 271.5 44.5001Z" fill="#86B69E"/>
<path d="M312.5 67.5C312.5 95.1143 290.114 117.5 262.5 117.5C234.886 117.5 212.5 95.1143 212.5 67.5C233.5 38 234.886 38 262.5 38C290.114 38 312.5 39.8858 312.5 67.5Z" fill="#86B69E"/>
<path d="M368.5 48.5001C368.5 76.1143 346.114 98.5001 318.5 98.5001C290.886 98.5001 268.5 76.1143 268.5 48.5001C199 61 290.886 21 318.5 21C346.114 21 368.5 20.8858 368.5 48.5001Z" fill="#86B69E"/>
<path d="M254.5 102.5C254.5 130.114 232.114 152.5 204.5 152.5C176.886 152.5 154.5 130.114 154.5 102.5C154.5 74.8858 176.886 75 204.5 75C232.114 75 254.5 74.8858 254.5 102.5Z" fill="#86B69E"/>
<path d="M192.5 129.5C192.5 157.114 170.114 179.5 142.5 179.5C114.886 179.5 92.5 157.114 92.5 129.5C92.5 101.886 114.886 102 142.5 102C170.114 102 192.5 101.886 192.5 129.5Z" fill="#86B69E"/>
<path d="M204.5 129.5C204.5 157.114 182.114 179.5 154.5 179.5C126.886 179.5 104.5 157.114 104.5 129.5C104.5 101.886 126.886 102 154.5 102C182.114 102 204.5 101.886 204.5 129.5Z" fill="#86B69E"/>
<path d="M223.5 121.5C223.5 149.114 201.114 171.5 173.5 171.5C145.886 171.5 123.5 149.114 123.5 121.5C123.5 93.8858 145.886 94 173.5 94C201.114 94 223.5 93.8858 223.5 121.5Z" fill="#86B69E"/>
<path d="M490 106.5C490 78.8859 512.386 56.5002 540 56.5002C567.614 56.5002 611.5 108.386 611.5 136C598 170.5 567.614 156.5 540 156.5C473.5 197 490 134.114 490 106.5Z" fill="#86B69E"/>
<path d="M490 106.5C490 78.8859 512.386 56.5002 540 56.5002C567.614 56.5002 611.5 108.386 611.5 136C598 170.5 567.614 156.5 540 156.5C473.5 197 490 134.114 490 106.5Z" fill="#86B69E" fill-opacity="0.09"/>
<path d="M440 87.5001C440 59.8858 462.386 37.5001 490 37.5001C517.614 37.5001 540 59.8858 540 87.5001C540 115.114 517.614 115 490 115C462.386 115 440 115.114 440 87.5001Z" fill="#86B69E"/>
<path d="M440 87.5001C440 59.8858 462.386 37.5001 490 37.5001C517.614 37.5001 540 59.8858 540 87.5001C540 115.114 517.614 115 490 115C462.386 115 440 115.114 440 87.5001Z" fill="#86B69E" fill-opacity="0.09"/>
<path d="M407 138C407 110.386 429.386 88.0001 457 88.0001C484.614 88.0001 507 110.386 507 138C507 165.614 484.614 165.5 457 165.5C429.386 165.5 407 165.614 407 138Z" fill="#86B69E"/>
<path d="M407 138C407 110.386 429.386 88.0001 457 88.0001C484.614 88.0001 507 110.386 507 138C507 165.614 484.614 165.5 457 165.5C429.386 165.5 407 165.614 407 138Z" fill="#86B69E" fill-opacity="0.09"/>
<path d="M479 165C479 137.386 501.386 115 529 115C556.614 115 579 137.386 579 165C579 192.614 556.614 192.5 529 192.5C501.386 192.5 479 192.614 479 165Z" fill="#86B69E"/>
<path d="M479 165C479 137.386 501.386 115 529 115C556.614 115 579 137.386 579 165C579 192.614 556.614 192.5 529 192.5C501.386 192.5 479 192.614 479 165Z" fill="#86B69E" fill-opacity="0.09"/>
<path d="M429 165C429 137.386 451.386 115 479 115C506.614 115 529 137.386 529 165C529 192.614 506.614 192.5 479 192.5C451.386 192.5 429 192.614 429 165Z" fill="#86B69E"/>
<path d="M429 165C429 137.386 451.386 115 479 115C506.614 115 529 137.386 529 165C529 192.614 506.614 192.5 479 192.5C451.386 192.5 429 192.614 429 165Z" fill="#86B69E" fill-opacity="0.09"/>
<path d="M333 88.0001C333 60.3858 355.386 38.0001 383 38.0001C410.614 38.0001 433 60.3858 433 88.0001C433 115.614 410.614 115.5 383 115.5C355.386 115.5 333 115.614 333 88.0001Z" fill="#86B69E"/>
<path d="M333 88.0001C333 60.3858 355.386 38.0001 383 38.0001C410.614 38.0001 433 60.3858 433 88.0001C433 115.614 410.614 115.5 383 115.5C355.386 115.5 333 115.614 333 88.0001Z" fill="#86B69E" fill-opacity="0.09"/>
<path d="M294 119C294 91.3858 316.386 69.0001 344 69.0001C371.614 69.0001 394 91.3858 394 119C394 146.614 371.614 146.5 344 146.5C316.386 146.5 294 146.614 294 119Z" fill="#86B69E"/>
<path d="M294 119C294 91.3858 316.386 69.0001 344 69.0001C371.614 69.0001 394 91.3858 394 119C394 146.614 371.614 146.5 344 146.5C316.386 146.5 294 146.614 294 119Z" fill="#86B69E" fill-opacity="0.09"/>
<path d="M249 132C249 104.386 271.386 82.0001 299 82.0001C326.614 82.0001 349 104.386 349 132C349 159.614 326.614 159.5 299 159.5C271.386 159.5 249 159.614 249 132Z" fill="#86B69E"/>
<path d="M249 132C249 104.386 271.386 82.0001 299 82.0001C326.614 82.0001 349 104.386 349 132C349 159.614 326.614 159.5 299 159.5C271.386 159.5 249 159.614 249 132Z" fill="#86B69E" fill-opacity="0.09"/>
<path d="M383 165C383 137.386 405.386 115 433 115C460.614 115 483 137.386 483 165C483 192.614 460.614 192.5 433 192.5C405.386 192.5 383 192.614 383 165Z" fill="#86B69E"/>
<path d="M383 165C383 137.386 405.386 115 433 115C460.614 115 483 137.386 483 165C483 192.614 460.614 192.5 433 192.5C405.386 192.5 383 192.614 383 165Z" fill="#86B69E" fill-opacity="0.09"/>
<path d="M340 165C340 137.386 362.386 115 390 115C417.614 115 440 137.386 440 165C440 192.614 417.614 192.5 390 192.5C362.386 192.5 340 192.614 340 165Z" fill="#86B69E"/>
<path d="M340 165C340 137.386 362.386 115 390 115C417.614 115 440 137.386 440 165C440 192.614 417.614 192.5 390 192.5C362.386 192.5 340 192.614 340 165Z" fill="#86B69E" fill-opacity="0.09"/>
<path d="M299 142C299 114.386 321.386 92.0001 349 92.0001C376.614 92.0001 399 114.386 399 142C378 171.5 376.614 171.5 349 171.5C321.386 171.5 299 169.614 299 142Z" fill="#86B69E"/>
<path d="M299 142C299 114.386 321.386 92.0001 349 92.0001C376.614 92.0001 399 114.386 399 142C378 171.5 376.614 171.5 349 171.5C321.386 171.5 299 169.614 299 142Z" fill="#86B69E" fill-opacity="0.09"/>
<path d="M243 161C243 133.386 265.386 111 293 111C320.614 111 343 133.386 343 161C412.5 148.5 320.614 188.5 293 188.5C265.386 188.5 243 188.614 243 161Z" fill="#86B69E"/>
<path d="M243 161C243 133.386 265.386 111 293 111C320.614 111 343 133.386 343 161C412.5 148.5 320.614 188.5 293 188.5C265.386 188.5 243 188.614 243 161Z" fill="#86B69E" fill-opacity="0.09"/>
<path d="M357 107C357 79.3858 379.386 57.0001 407 57.0001C434.614 57.0001 457 79.3858 457 107C457 134.614 434.614 134.5 407 134.5C379.386 134.5 357 134.614 357 107Z" fill="#86B69E"/>
<path d="M357 107C357 79.3858 379.386 57.0001 407 57.0001C434.614 57.0001 457 79.3858 457 107C457 134.614 434.614 134.5 407 134.5C379.386 134.5 357 134.614 357 107Z" fill="#86B69E" fill-opacity="0.09"/>
<path d="M419 80.0001C419 52.3858 441.386 30.0001 469 30.0001C496.614 30.0001 519 52.3858 519 80.0001C519 107.614 496.614 107.5 469 107.5C441.386 107.5 419 107.614 419 80.0001Z" fill="#86B69E"/>
<path d="M419 80.0001C419 52.3858 441.386 30.0001 469 30.0001C496.614 30.0001 519 52.3858 519 80.0001C519 107.614 496.614 107.5 469 107.5C441.386 107.5 419 107.614 419 80.0001Z" fill="#86B69E" fill-opacity="0.09"/>
<path d="M407 80.0001C407 52.3858 429.386 30.0001 457 30.0001C484.614 30.0001 507 52.3858 507 80.0001C507 107.614 484.614 107.5 457 107.5C429.386 107.5 407 107.614 407 80.0001Z" fill="#86B69E"/>
<path d="M407 80.0001C407 52.3858 429.386 30.0001 457 30.0001C484.614 30.0001 507 52.3858 507 80.0001C507 107.614 484.614 107.5 457 107.5C429.386 107.5 407 107.614 407 80.0001Z" fill="#86B69E" fill-opacity="0.09"/>
<path d="M388 88.0001C388 60.3858 410.386 38.0001 438 38.0001C465.614 38.0001 488 60.3858 488 88.0001C488 115.614 465.614 115.5 438 115.5C410.386 115.5 388 115.614 388 88.0001Z" fill="#86B69E"/>
<path d="M388 88.0001C388 60.3858 410.386 38.0001 438 38.0001C465.614 38.0001 488 60.3858 488 88.0001C488 115.614 465.614 115.5 438 115.5C410.386 115.5 388 115.614 388 88.0001Z" fill="#86B69E" fill-opacity="0.09"/>
</svg>
